<?xml version="1.0" standalone="yes"?>
<!DOCTYPE svg PUBLIC "-//W3C//DTD SVG 20010904//EN"
 "http://www.w3.org/TR/2001/REC-SVG-20010904/DTD/svg10.dtd">
<svg version="1.0" xmlns="http://www.w3.org/2000/svg"
 width="1168.000000pt" height="1280.000000pt" viewBox="0 0 1168.000000 1280.000000"
 preserveAspectRatio="xMidYMid meet">
<g transform="translate(0.000000,1280.000000) scale(0.0100000,-0.0100000)"
fill="white" stroke="black" stroke-width="100">
<path d="M2914 12690 c-151 -30 -285 -178 -345 -380 -18 -63 -22 -108 -26
-282 l-5 -207 -507 -3 -506 -3 -45 -23 c-61 -32 -97 -67 -128 -127 l-27 -50
-6 -450 c-3 -247 -6 -451 -7 -451 -1 -1 -19 -5 -39 -9 -60 -10 -213 -88 -271
-138 -57 -47 -117 -116 -153 -173 -12 -20 -24 -31 -28 -26 -9 14 -126 -28
-208 -74 -39 -22 -100 -70 -144 -114 -63 -62 -85 -94 -122 -171 -25 -52 -51
-116 -58 -144 -11 -41 -14 -893 -16 -4490 -4 -4991 -11 -4541 73 -4714 38 -78
61 -109 128 -176 66 -66 99 -90 176 -128 52 -25 127 -54 165 -64 67 -17 312
-18 5025 -18 4713 0 4958 1 5025 18 39 10 113 39 165 64 193 95 329 277 365
488 14 80 15 565 12 4530 -2 3597 -5 4449 -16 4490 -7 28 -33 92 -58 144 -75
156 -218 282 -390 343 -64 22 -229 52 -243 43 -4 -3 -25 17 -45 45 -113 155
-292 257 -496 285 -46 6 -46 6 -52 49 -3 23 -15 64 -27 90 -19 45 -20 67 -20
386 0 318 -1 343 -21 394 -14 39 -35 68 -71 100 -86 78 -62 76 -824 76 l-672
0 -5 203 c-5 225 -16 283 -73 405 -46 97 -136 192 -220 233 -132 65 -280 34
-396 -85 -64 -64 -118 -160 -149 -266 -18 -63 -22 -108 -26 -282 l-5 -208
-2094 0 -2094 0 0 163 c0 183 -10 258 -46 369 -75 228 -269 374 -450 338z"/>
<text x="100" y="100" stroke ="none" style="font-size:1000px">bob</text>
</g>
</svg>
