<?xml version="1.0" encoding="UTF-8"?>
<svg width="169.82" height="166.51" fill-rule="evenodd" image-rendering="optimizeQuality" shape-rendering="geometricPrecision" text-rendering="geometricPrecision" viewBox="0 0 22.5729 22.1329" xmlns="http://www.w3.org/2000/svg">
 <path d="m1.8597,22.115h18.8535c1.01302,0 1.84175-.81385 1.84175-1.80869v-15.1689c0-.99484-.82873-1.80869-1.84175-1.80869h-1.26627v2.11916c0,.44474-.36388.80862-.80862.80862h-3.07934c-.44474,0-.80862-.36388-.80862-.80862v-2.11916h-7.0021v2.11939c0,.44474-.36388.80862-.80862.80862h-3.07934c-.44474,0-.80862-.36388-.80862-.80862v-2.11939h-1.19195c-1.01302,0-1.84175.81385-1.84175,1.80869v15.1689c0,.99484.82873,1.80869 1.84175,1.80869z" fill="#da251d" stroke="#1f1a17" stroke-width=".0942"/>
 <path d="m2.8789 20.8h16.81c0.93107 0 1.6928-0.57388 1.6928-1.2754v-11.64h-20.195v11.64c0 0.70152 0.76171 1.2754 1.6928 1.2754z" fill="#fff" stroke="#1f1a17" stroke-width=".0942"/>
 <path d="m5.1273 0.0471h0.52814a1.203 1.203 0 0 1 1.203 1.203v3.1689a1.203 1.203 0 0 1 -1.203 1.203h-0.52814a1.203 1.203 0 0 1 -1.203 -1.203v-3.1689a1.203 1.203 0 0 1 1.203 -1.203" fill="#1f1a17" stroke="#1f1a17" stroke-width=".0942"/>
 <path d="m16.825 0.04714h0.52814a1.203 1.203 0 0 1 1.203 1.203v3.1689a1.203 1.203 0 0 1 -1.203 1.203h-0.52814a1.203 1.203 0 0 1 -1.203 -1.203v-3.1689a1.203 1.203 0 0 1 1.203 -1.203" fill="#1f1a17" stroke="#1f1a17" stroke-width=".0942"/>
 <text id="date" x="7.2" y="19" style="font-size:8">02</text>
 <text id="week" x="6.8" y="12" style="font-size:5" fill="#969594" fill-rule="nonzero">Mon</text>
</svg>
